<mxfile host="app.diagrams.net" modified="2024-01-17T03:06:33.848Z" agent="Mozilla/5.0 (Windows NT 10.0; Win64; x64) AppleWebKit/537.36 (KHTML, like Gecko) Chrome/120.0.0.0 Safari/537.36 Edg/120.0.0.0" version="22.1.18" etag="Vfzp1FwJ-2WyiDq9ALjP" type="github">
  <diagram name="Page-1" id="NzDTx-EXhJpQ_yGbVrHP">
    <mxGraphModel>
      <root>
        <mxCell id="0" />
        <mxCell id="1" parent="0" />
      </root>
    </mxGraphModel>
  </diagram>
</mxfile>
